<?xml version="1.0" encoding="utf-8"?>
<!-- Generator: Adobe Illustrator 22.0.1, SVG Export Plug-In . SVG Version: 6.00 Build 0)  -->
<svg version="1.1" id="Layer_1" xmlns="http://www.w3.org/2000/svg" xmlns:xlink="http://www.w3.org/1999/xlink" x="0px" y="0px"
	 viewBox="0 0 800 400" style="enable-background:new 0 0 800 400;" xml:space="preserve">
<style type="text/css">
	.st0{fill:#E9258E;}
	.st1{fill:#272660;}
</style>
<path class="st0" d="M131.1,335.8L89.9,336l-6.3,33.1l-73.3,0.4L65.5,130l90.9-0.4l57.9,238.9l-76.7,0.4L131.1,335.8z M97.7,279.2
	l24.3-0.1l-11.5-77.6l-1.4,0L97.7,279.2z"/>
<path class="st0" d="M210.5,250.2c-0.1-19,2.3-36.2,7.1-51.7c4.8-15.4,11.6-28.7,20.3-39.7c8.7-11,19-19.5,30.9-25.5
	c11.9-6,25-9,39.3-9.1c8.9,0,17.1,0.8,24.5,2.4c7.4,1.6,13.9,3.9,19.6,6.8c5.7,2.9,10.8,6.1,15.1,9.6c4.4,3.6,8.1,7.3,11.3,11.3
	L340,210c-2.9-3.8-6.2-7.2-9.8-10.2c-3.6-3-8.6-4.5-15.1-4.5c-4.7,0-8.9,1.4-12.5,4.1c-3.7,2.7-6.8,6.5-9.5,11.3
	c-2.7,4.8-4.6,10.6-5.9,17.3c-1.3,6.7-1.9,14-1.9,21.8c0,7.8,0.7,15,2.1,21.4c1.4,6.5,3.4,12.1,6.1,16.9c2.7,4.8,6,8.5,9.8,11.2
	c3.8,2.7,8.1,4,12.8,4c5.4,0,10-1.6,13.9-4.6c3.9-3,7.1-6.3,9.5-9.9l40.8,53.4c-3.3,4.5-7.2,8.7-11.7,12.6
	c-4.5,3.9-9.5,7.4-15.2,10.3c-5.7,2.9-12.2,5.3-19.4,7.1c-7.3,1.8-15.5,2.8-24.6,2.8c-14.3,0.1-27.4-2.9-39.4-8.9
	c-12-6-22.4-14.5-31.1-25.5c-8.8-11-15.7-24.2-20.6-39.4C213.1,286,210.6,268.9,210.5,250.2z"/>
<g>
	<path class="st1" d="M84,40.6l0,17.3l20.2,0l0,16.4l-20.1,0l0,33.7l-19.4,0l0-84.6l41.2,0l0,17.2L84,40.6z"/>
	<path class="st1" d="M115.7,108l0-84.6l40.9,0l0,16.8l-22.6,0l0,16.6l20.8,0l0,15.8l-20.8,0l0,18.2l24,0l0,17.2L115.7,108z"/>
	<path class="st1" d="M227.8,107.9l0.7-58.1l-0.5,0l-14.2,58.1l-13.5,0l-13.8-58.1l-0.4,0l0.6,58.1l-17.3,0l0-84.6l24.1,0l13.6,54.5
		l0.5,0l13.2-54.5l25.6,0l0,84.6L227.8,107.9z"/>
	<path class="st1" d="M260.8,107.9l0-84.6l19.2,0l0,84.6L260.8,107.9z"/>
	<path class="st1" d="M330.9,107.9l-19.6-51.5l-0.4,0l0.5,51.5l-17.1,0l0-84.6l21,0l19.5,52.2l0.4,0l-0.4-52.2l16.5,0l0,84.6
		L330.9,107.9z"/>
	<path class="st1" d="M365.7,107.9l0-84.6l19.2,0l0,84.6L365.7,107.9z"/>
	<path class="st1" d="M434.2,43.5c-1.4-1.7-3.1-3-5-3.9c-1.9-0.9-3.9-1.4-6-1.4c-2.2,0-4.1,0.7-5.8,2c-1.7,1.4-2.6,3.6-2.6,6.7
		c0,2.6,0.9,4.7,2.6,6.2c1.8,1.5,4.3,3.1,7.8,4.8c1.9,1,3.9,2.1,6.1,3.4c2.1,1.3,4.1,2.9,5.8,4.8c1.8,1.9,3.2,4.2,4.4,6.9
		c1.2,2.7,1.7,5.8,1.7,9.5c0,4.5-0.7,8.6-2.2,12c-1.4,3.5-3.4,6.3-5.8,8.6c-2.4,2.3-5.3,4-8.5,5.1c-3.2,1.2-6.5,1.7-9.9,1.7
		c-5.1,0-9.7-1-13.9-2.9s-7.5-4.1-10.1-6.7l9.8-14.3c1.8,1.9,3.9,3.4,6.3,4.6c2.4,1.2,4.8,1.7,7.3,1.7c2.3,0,4.3-0.8,5.9-2.3
		s2.4-3.6,2.4-6.3c0-2.8-1-5-2.9-6.6c-1.9-1.6-4.7-3.4-8.4-5.2c-2.3-1.1-4.5-2.3-6.5-3.7c-2-1.4-3.8-3-5.4-4.9
		c-1.6-1.9-2.8-4.1-3.6-6.7c-0.9-2.5-1.3-5.6-1.3-9.1c0-4.7,0.8-8.7,2.3-12.1c1.6-3.4,3.6-6.2,6.1-8.3c2.5-2.2,5.3-3.7,8.4-4.8
		c3.1-1,6.2-1.6,9.3-1.6c4.6,0,8.8,0.7,12.4,2.3c3.7,1.5,6.7,3.6,9.2,6.2L434.2,43.5z"/>
	<path class="st1" d="M483.4,39.5l0,68.3l-18.8,0l0-68.3l-15.5,0l0-16.2l49.8,0l0,16.2L483.4,39.5z"/>
	<path class="st1" d="M542.4,43.4c-1.4-1.7-3.1-3-5-3.9c-1.9-0.9-3.9-1.4-6-1.4c-2.2,0-4.1,0.7-5.8,2c-1.7,1.4-2.6,3.6-2.6,6.7
		c0,2.6,0.9,4.7,2.6,6.2c1.7,1.5,4.3,3.1,7.8,4.8c1.9,1,3.9,2.1,6.1,3.4c2.1,1.3,4.1,2.9,5.8,4.8c1.8,1.9,3.2,4.2,4.4,6.9
		c1.2,2.7,1.7,5.8,1.7,9.5c0,4.5-0.7,8.6-2.2,12c-1.4,3.5-3.4,6.3-5.8,8.6c-2.4,2.3-5.3,4-8.5,5.1c-3.2,1.2-6.5,1.7-9.9,1.7
		c-5.1,0-9.7-1-13.9-2.9c-4.2-1.9-7.5-4.1-10.1-6.7l9.8-14.3c1.8,1.9,3.9,3.4,6.3,4.6c2.4,1.2,4.8,1.7,7.3,1.7
		c2.3,0,4.3-0.8,5.8-2.3c1.6-1.5,2.4-3.6,2.4-6.3c0-2.8-1-5-2.9-6.6c-1.9-1.6-4.7-3.4-8.4-5.2c-2.3-1.1-4.5-2.3-6.5-3.7
		c-2-1.4-3.8-3-5.4-4.9c-1.6-1.9-2.8-4.1-3.6-6.7c-0.9-2.5-1.3-5.6-1.3-9.1c0-4.7,0.8-8.7,2.3-12.1c1.6-3.4,3.6-6.2,6.1-8.3
		c2.5-2.2,5.3-3.7,8.4-4.8c3.1-1,6.2-1.6,9.3-1.6c4.6,0,8.8,0.7,12.4,2.3c3.7,1.5,6.7,3.6,9.2,6.2L542.4,43.4z"/>
</g>
<path class="st0" d="M510.2,368.5l-72.2,0.4l-0.9-176.8l-42.2,0.2l-0.3-62.1l156.5-0.8l0.3,62.1l-42.2,0.2L510.2,368.5z"/>
<polygon class="st0" points="681.6,22.8 680,71.8 786.7,71.8 786.7,22.8 "/>
<g>
	<polygon class="st1" points="655.2,263.6 663,22.3 573.5,22.3 580.6,263.6 	"/>
	<polygon class="st1" points="581.6,298.9 583.6,367.2 651.8,367.2 654,298.9 	"/>
</g>
<polygon class="st0" points="678.9,107.5 677.3,156.5 786.7,156.5 786.7,107.5 "/>
</svg>
